HIERARCHY
ROOT Hips
{
	OFFSET 0.00000 0.00000 0.00000
	CHANNELS 6 Xposition Yposition Zposition Zrotation Yrotation Xrotation 
	JOINT LHipJoint
	{
		OFFSET 0 0 0
		CHANNELS 3 Zrotation Yrotation Xrotation
		JOINT LeftHip
		{
			OFFSET 1.53794 -1.55850 0.93568
			CHANNELS 3 Zrotation Yrotation Xrotation
			JOINT LeftKnee
			{
				OFFSET 2.28545 -6.27922 0.00000
				CHANNELS 3 Zrotation Yrotation Xrotation
				JOINT LeftAnkle
				{
					OFFSET 2.37329 -6.52057 0.00000
					CHANNELS 3 Zrotation Yrotation Xrotation
					JOINT LeftToe
					{
						OFFSET 0.14846 -0.40788 2.09160
						CHANNELS 3 Zrotation Yrotation Xrotation
						End Site
						{
							OFFSET 0.00000 -0.00000 1.07536
						}
					}
				}
			}
		}
	}
	JOINT RHipJoint
	{
		OFFSET 0 0 0
		CHANNELS 3 Zrotation Yrotation Xrotation
		JOINT RightHip
		{
			OFFSET -1.78290 -1.55850 0.93568
			CHANNELS 3 Zrotation Yrotation Xrotation
			JOINT RightKnee
			{
				OFFSET -2.24144 -6.15831 0.00000
				CHANNELS 3 Zrotation Yrotation Xrotation
				JOINT RightAnkle
				{
					OFFSET -2.35091 -6.45907 0.00000
					CHANNELS 3 Zrotation Yrotation Xrotation
					JOINT RightToe
					{
						OFFSET -0.14428 -0.39641 2.07944
						CHANNELS 3 Zrotation Yrotation Xrotation
						End Site
						{
							OFFSET -0.00000 -0.00000 1.06864
						}
					}
				}
			}
		}
	}
	JOINT lowerback
	{
		OFFSET 0 0 0
		CHANNELS 3 Zrotation Yrotation Xrotation
		JOINT Chest
		{
			OFFSET -0.08841 2.11430 -0.15818
			CHANNELS 3 Zrotation Yrotation Xrotation
			JOINT Chest2
			{
				OFFSET -0.00033 2.12605 -0.08097
				CHANNELS 3 Zrotation Yrotation Xrotation
				JOINT lowerneck
				{
					OFFSET 0 0 0
					CHANNELS 3 Zrotation Yrotation Xrotation
					JOINT Neck
					{
						OFFSET 0.04431 1.59447 0.43193
						CHANNELS 3 Zrotation Yrotation Xrotation
						JOINT Head
						{
							OFFSET 0.00455 1.62017 -0.58852
							CHANNELS 3 Zrotation Yrotation Xrotation
							End Site
							{
								OFFSET -0.00920 1.72955 -0.25850
							}
						}
					}
				}
				JOINT LeftCollar
				{
					OFFSET 0 0 0
					CHANNELS 3 Zrotation Yrotation Xrotation
					JOINT LeftShoulder
					{
						OFFSET 2.86490 1.49927 -0.33774
CHANNELS 3 Zrotation Xrotation Yrotation
						JOINT LeftElbow
						{
OFFSET 0 -4.874080 0.000000
CHANNELS 3 Zrotation Xrotation Yrotation
							JOINT LeftWrist
							{
OFFSET 0 -2.767290 0.000000
CHANNELS 3 Zrotation Xrotation Yrotation
								JOINT lhand
								{
									OFFSET 0 0 0
CHANNELS 3 Zrotation Xrotation Yrotation
									JOINT LFingers
									{
OFFSET 0 -0.989220 0.000000
CHANNELS 3 Zrotation Xrotation Yrotation
										End Site
										{
OFFSET 0 -0.797530 0.000000
										}
									}
								}
								JOINT LThumb
								{
OFFSET 0 0.000000 0.000000
CHANNELS 3 Zrotation Xrotation Yrotation
									End Site
									{
OFFSET 0 -0.809720 0.809720
									}
								}
							}
						}
					}
				}
				JOINT RightCollar
				{
					OFFSET 0 0 0
					CHANNELS 3 Zrotation Yrotation Xrotation
					JOINT RightShoulder
					{
						OFFSET -2.94414 1.45463 -0.25291
CHANNELS 3 Zrotation Xrotation Yrotation
						JOINT RightElbow
						{
OFFSET 0 -4.714040 0.000000
CHANNELS 3 Zrotation Xrotation Yrotation
							JOINT RightWrist
							{
OFFSET 0 -2.834680 0.000000
CHANNELS 3 Zrotation Xrotation Yrotation
								JOINT rhand
								{
									OFFSET 0 0 0
CHANNELS 3 Zrotation Xrotation Yrotation
									JOINT RFingers
									{
OFFSET 0 -0.868200 0.000000
CHANNELS 3 Zrotation Xrotation Yrotation
										End Site
										{
OFFSET 0 -0.699960 0.000000
										}
									}
								}
								JOINT RThumb
								{
OFFSET 0 0.000000 0.000000
CHANNELS 3 Zrotation Xrotation Yrotation
									End Site
									{
OFFSET 0 -0.710650 0.710650
									}
								}
							}
						}
					}
				}
			}
		}
	}
}
MOTION
Frames: 8
Frame Time: 0.008333333333333333
1.484054 16.938528 5.123264 -181.990539 -0.381575 -162.740095 0.000000 0.000000 0.000000 -14.708983 -21.726101 -35.624699 3.103819 10.858359 31.806880 -0.399047 13.864590 3.777658 0.320004 -3.635463 -10.053397 0.000000 0.000000 0.000000 23.253284 2.898758 2.228307 -1.287360 -7.189549 20.278220 -0.898138 -20.426742 20.823706 -0.558530 4.782041 -13.288855 -3.595234 4.604053 -3.114700 -2.951089 6.232830 -0.008979 -0.753725 3.053610 1.675867 -2.162058 -2.358681 -34.369987 4.259469 -7.538584 40.739650 0.201965 -3.080191 24.447594 0.000000 0.000000 0.000000 32.111549 32.641017 -61.156700 100.981377 -59.537679 69.495321 15.489598 18.286857 -6.720692 0.000000 0.000000 0.000000 -7.125000 0.000000 0.000000 -9.523046 36.803674 -1.941752 0.000000 0.000000 0.000000 -8.118419 0.705267 47.652475 -100.752874 -59.556324 -69.298232 -9.562270 8.743685 3.746875 0.000000 0.000000 0.000000 7.125000 0.000000 0.000000 13.878170 33.531340 4.002798
1.478962 16.936984 5.005192 -181.987618 -0.421725 -162.754285 0.000000 0.000000 0.000000 -14.648549 -21.912704 -35.448697 2.971056 10.643876 31.092439 -0.385942 13.752570 3.877575 0.334612 -3.716390 -10.280192 0.000000 0.000000 0.000000 23.243851 2.648675 2.501721 -1.279681 -7.168848 20.216659 -0.963413 -20.726825 21.375918 -0.508989 4.565722 -12.675166 -3.591102 4.643160 -3.205101 -2.963067 6.289091 -0.024338 -0.758775 3.081031 1.711802 -2.246574 -2.416444 -34.353960 4.292608 -7.594552 40.739149 0.219494 -3.109573 24.455983 0.000000 0.000000 0.000000 32.290848 32.726451 -61.347101 101.654332 -59.478038 70.075162 15.622194 18.260772 -6.760675 0.000000 0.000000 0.000000 -7.125000 0.000000 0.000000 -9.418539 36.852422 -1.908655 0.000000 0.000000 0.000000 -8.216458 0.780601 47.858026 -101.511221 -59.490172 -69.951696 -9.611811 8.716056 3.676424 0.000000 0.000000 0.000000 7.125000 0.000000 0.000000 13.826709 33.464019 4.010394
1.473792 16.934858 4.887190 -181.981397 -0.461828 -162.771124 0.000000 0.000000 0.000000 -14.587959 -22.094853 -35.274206 2.842625 10.435445 30.399119 -0.372976 13.643219 3.978642 0.349067 -3.796110 -10.503657 0.000000 0.000000 0.000000 23.237392 2.398960 2.772544 -1.273186 -7.151346 20.164612 -1.027252 -21.027581 21.917396 -0.460858 4.353613 -12.073751 -3.583381 4.682159 -3.293566 -2.973427 6.345086 -0.038929 -0.764238 3.108404 1.747663 -2.330951 -2.473773 -34.337725 4.324956 -7.649709 40.739156 0.236784 -3.138808 24.464642 0.000000 0.000000 0.000000 32.466792 32.808447 -61.537059 102.325621 -59.417659 70.653471 15.752876 18.233068 -6.801583 0.000000 0.000000 0.000000 -7.125000 0.000000 0.000000 -9.315746 36.902021 -1.875779 0.000000 0.000000 0.000000 -8.314383 0.857411 48.062058 -102.267137 -59.423117 -70.602955 -9.662255 8.689147 3.605574 0.000000 0.000000 0.000000 7.125000 0.000000 0.000000 13.774488 33.396321 4.017829
1.467949 16.927721 4.769786 -181.946756 -0.501519 -162.810773 0.000000 0.000000 0.000000 -14.526022 -22.238635 -35.112729 2.751514 10.279142 29.887767 -0.361206 13.556867 4.089618 0.362214 -3.865434 -10.698440 0.000000 0.000000 0.000000 23.256549 2.152424 3.021041 -1.276901 -7.161405 20.194537 -1.078713 -21.334134 22.366394 -0.424882 4.177778 -11.578092 -3.544733 4.720222 -3.365352 -2.969837 6.398801 -0.046901 -0.773253 3.135366 1.782889 -2.414131 -2.527363 -34.319695 4.350499 -7.697873 40.743538 0.252018 -3.166771 24.475618 0.000000 0.000000 0.000000 32.613829 32.860826 -61.723203 102.982549 -59.350923 71.218580 15.867066 18.191415 -6.850456 0.000000 0.000000 0.000000 -7.125000 0.000000 0.000000 -9.227724 36.958949 -1.844811 0.000000 0.000000 0.000000 -8.411336 0.946935 48.253001 -103.002112 -59.348284 -71.235217 -9.720477 8.668446 3.531283 0.000000 0.000000 0.000000 7.125000 0.000000 0.000000 13.715724 33.325369 4.023881
1.462106 16.920584 4.652382 -181.912115 -0.541210 -162.850422 0.000000 0.000000 0.000000 -14.464085 -22.382416 -34.951251 2.660404 10.122840 29.376415 -0.349437 13.470515 4.200595 0.375361 -3.934757 -10.893223 0.000000 0.000000 0.000000 23.275706 1.905888 3.269539 -1.280615 -7.171463 20.224462 -1.130173 -21.640687 22.815392 -0.388905 4.001944 -11.082433 -3.506085 4.758285 -3.437138 -2.966248 6.452515 -0.054872 -0.782268 3.162327 1.818114 -2.497311 -2.580952 -34.301665 4.376042 -7.746036 40.747920 0.267252 -3.194735 24.486595 0.000000 0.000000 0.000000 32.760865 32.913205 -61.909346 103.639477 -59.284187 71.783688 15.981256 18.149763 -6.899329 0.000000 0.000000 0.000000 -7.125000 0.000000 0.000000 -9.139702 37.015877 -1.813843 0.000000 0.000000 0.000000 -8.508290 1.036459 48.443945 -103.737087 -59.273451 -71.867479 -9.778699 8.647745 3.456993 0.000000 0.000000 0.000000 7.125000 0.000000 0.000000 13.656959 33.254418 4.029933
1.455938 16.909222 4.535569 -181.857972 -0.580576 -162.908983 0.000000 0.000000 0.000000 -14.411546 -22.486306 -34.800619 2.596184 10.009975 29.009706 -0.337017 13.383394 4.323775 0.386883 -3.993887 -11.059521 0.000000 0.000000 0.000000 23.315252 1.676018 3.497086 -1.294731 -7.209091 20.336534 -1.167953 -21.946530 23.175241 -0.362030 3.862721 -10.691023 -3.449796 4.795433 -3.491579 -2.951489 6.504014 -0.059121 -0.790751 3.188727 1.848228 -2.575557 -2.628159 -34.279616 4.394522 -7.785512 40.757031 0.280181 -3.220334 24.498694 0.000000 0.000000 0.000000 32.883524 32.943275 -62.093303 104.263753 -59.215264 72.320075 16.090926 18.114699 -6.949443 0.000000 0.000000 0.000000 -7.125000 0.000000 0.000000 -9.055492 37.073958 -1.783850 0.000000 0.000000 0.000000 -8.603174 1.141053 48.623511 -104.453033 -59.193270 -72.482544 -9.834025 8.624266 3.385687 0.000000 0.000000 0.000000 7.125000 0.000000 0.000000 13.601150 33.186244 4.035660
1.449636 16.896116 4.419000 -181.795785 -0.619808 -162.975344 0.000000 0.000000 0.000000 -14.362881 -22.573743 -34.654458 2.543054 9.915026 28.702653 -0.324329 13.295957 4.451989 0.397734 -4.048812 -11.214070 0.000000 0.000000 0.000000 23.363207 1.453022 3.715992 -1.313137 -7.258089 20.482485 -1.200090 -22.252081 23.498321 -0.338908 3.738597 -10.342609 -3.386232 4.832203 -3.538866 -2.932124 6.554598 -0.061834 -0.799015 3.214896 1.876233 -2.651767 -2.672733 -34.255910 4.410089 -7.821406 40.768091 0.292159 -3.244958 24.511257 0.000000 0.000000 0.000000 32.996128 32.964143 -62.276358 104.874563 -59.145439 72.844616 16.198730 18.082354 -7.000069 0.000000 0.000000 0.000000 -7.125000 0.000000 0.000000 -8.972855 37.132514 -1.754259 0.000000 0.000000 0.000000 -8.697206 1.251863 48.798386 -105.161129 -59.110882 -73.090516 -9.888157 8.599642 3.315612 0.000000 0.000000 0.000000 7.125000 0.000000 0.000000 13.546559 33.119216 4.041252
1.443256 16.881162 4.302717 -181.730993 -0.658194 -163.048476 0.000000 0.000000 0.000000 -14.326652 -22.640007 -34.513481 2.500289 9.838358 28.454913 -0.310456 13.198949 4.590529 0.408312 -4.101861 -11.363424 0.000000 0.000000 0.000000 23.414443 1.240286 3.919742 -1.337376 -7.321854 20.672776 -1.225872 -22.551967 23.781529 -0.317765 3.622820 -10.017881 -3.319998 4.868647 -3.578692 -2.911052 6.604219 -0.064651 -0.807682 3.240739 1.900149 -2.727105 -2.716656 -34.226761 4.424485 -7.855983 40.777354 0.303799 -3.269348 24.519744 0.000000 0.000000 0.000000 33.102664 32.977081 -62.459413 105.470827 -59.075159 73.356409 16.301821 18.053225 -7.049745 0.000000 0.000000 0.000000 -7.125000 0.000000 0.000000 -8.893993 37.189858 -1.725853 0.000000 0.000000 0.000000 -8.787201 1.373194 48.965747 -105.859460 -59.026633 -73.689697 -9.945297 8.572413 3.247516 0.000000 0.000000 0.000000 7.125000 0.000000 0.000000 13.489962 33.054179 4.045399
